<?xml version="1.0" encoding="UTF-8"?>
<svg width="100" height="100" viewBox="0 0 100 100" xmlns="http://www.w3.org/2000/svg">
    <defs>
        <pattern id="security-pattern" x="0" y="0" width="50" height="50" patternUnits="userSpaceOnUse">
            <!-- Hexagon Grid -->
            <path d="M25 0L50 14.4V43.2L25 57.6L0 43.2V14.4L25 0Z" fill="none" stroke="currentColor" stroke-width="0.5" opacity="0.1"/>
            <!-- Lock Symbol -->
            <path d="M20 25h10v-5c0-2.76 2.24-5 5-5s5 2.24 5 5v5h10c1.1 0 2 .9 2 2v20c0 1.1-.9 2-2 2H20c-1.1 0-2-.9-2-2V27c0-1.1.9-2 2-2zm0 2v20h40V27H20zm15-5c-1.66 0-3 1.34-3 3v5h6v-5c0-1.66-1.34-3-3-3z" fill="currentColor" opacity="0.05"/>
        </pattern>
    </defs>
    <rect width="100" height="100" fill="url(#security-pattern)"/>
</svg> 